# xmcd
#
# Track frame offsets:
#	150
#	1154
#	14203
#	29817
#	42049
#	55103
#	60289
#	78383
#	91051
#	110554
#	127765
#	143402
#	151032
#	163918
#	166101
#	176490
#	190675
#	198356
#	210232
#
# Disc length: 2952 seconds
# Revision: 0
# Processed by: cddbd v1.5.2PL0 Copyright (c) Steve Scherf et al.
# Submitted via: dBpowerAMP V12.0
#
DISCID=e10b8613
DTITLE=Mark Lee Gardner - Outlaws - Songs of Robbers, Rustlers, and Rogues
DYEAR=2013
DGENRE=Country
TTITLE0=Prologue
TTITLE1=Little Sadie
TTITLE2=John Hardy
TTITLE3=Kentucky Moonshiner
TTITLE4=Billy the Kid
TTITLE5=The Gallina
TTITLE6=Billy 1
TTITLE7=The Finger of Billy the Kid
TTITLE8=Sam Bass
TTITLE9=Cole Younger
TTITLE10=Jesse James
TTITLE11=Women Outlaws
TTITLE12=Far Past Lonely
TTITLE13=Epilogue
TTITLE14=Uncle Cliff
TTITLE15=Shoal Creek
TTITLE16=Ol' Sam Clemens
TTITLE17=A Ride on the B and O
TTITLE18=Angelina the Baker
EXTD=
EXTT0=
EXTT1=
EXTT2=
EXTT3=
EXTT4=
EXTT5=
EXTT6=
EXTT7=
EXTT8=
EXTT9=
EXTT10=
EXTT11=
EXTT12=
EXTT13=
EXTT14=
EXTT15=
EXTT16=
EXTT17=
EXTT18=
PLAYORDER=
